<svg width="1200" height="630" viewBox="0 0 1200 630" xmlns="http://www.w3.org/2000/svg">
  <defs>
    <linearGradient id="bgGradient" x1="0%" y1="0%" x2="100%" y2="100%">
      <stop offset="0%" style="stop-color:#0f172a;stop-opacity:1" />
      <stop offset="100%" style="stop-color:#1e3a8a;stop-opacity:1" />
    </linearGradient>
    <linearGradient id="accentGradient1" x1="0%" y1="0%" x2="100%" y2="100%">
      <stop offset="0%" style="stop-color:#14b8a6;stop-opacity:0.8" />
      <stop offset="100%" style="stop-color:#0d9488;stop-opacity:0.9" />
    </linearGradient>
    <linearGradient id="accentGradient2" x1="0%" y1="0%" x2="100%" y2="100%">
      <stop offset="0%" style="stop-color:#06b6d4;stop-opacity:0.6" />
      <stop offset="100%" style="stop-color:#0891b2;stop-opacity:0.7" />
    </linearGradient>
    <filter id="glow">
      <feGaussianBlur stdDeviation="4" result="coloredBlur"/>
      <feMerge>
        <feMergeNode in="coloredBlur"/>
        <feMergeNode in="SourceGraphic"/>
      </feMerge>
    </filter>
  </defs>
  <rect width="1200" height="630" fill="url(#bgGradient)"/>
  <g transform="translate(600, 315)">
    <polygon points="0,-60 52,-30 52,30 0,60 -52,30 -52,-30" fill="url(#accentGradient1)" stroke="#14b8a6" stroke-width="3" filter="url(#glow)" opacity="0.9"/>
    <circle cx="0" cy="0" r="20" fill="#ffffff" opacity="0.3"/>
  </g>
  <g transform="translate(250, 200)">
    <rect x="-40" y="-40" width="80" height="80" fill="none" stroke="url(#accentGradient2)" stroke-width="2.5" rx="8" opacity="0.7"/>
    <circle cx="0" cy="0" r="8" fill="#0d9488"/>
  </g>
  <line x1="290" y1="200" x2="550" y2="295" stroke="#14b8a6" stroke-width="2" stroke-dasharray="5,5" opacity="0.5"/>
  <g transform="translate(950, 200)">
    <rect x="-40" y="-40" width="80" height="80" fill="none" stroke="url(#accentGradient2)" stroke-width="2.5" rx="8" opacity="0.7"/>
    <circle cx="0" cy="0" r="8" fill="#0d9488"/>
  </g>
  <line x1="910" y1="200" x2="650" y2="295" stroke="#14b8a6" stroke-width="2" stroke-dasharray="5,5" opacity="0.5"/>
  <g transform="translate(350, 450)">
    <rect x="-35" y="-35" width="70" height="70" fill="none" stroke="url(#accentGradient2)" stroke-width="2.5" rx="8" opacity="0.7"/>
    <circle cx="0" cy="0" r="8" fill="#0d9488"/>
  </g>
  <line x1="380" y1="435" x2="560" y2="350" stroke="#14b8a6" stroke-width="2" stroke-dasharray="5,5" opacity="0.5"/>
  <g transform="translate(850, 450)">
    <rect x="-35" y="-35" width="70" height="70" fill="none" stroke="url(#accentGradient2)" stroke-width="2.5" rx="8" opacity="0.7"/>
    <circle cx="0" cy="0" r="8" fill="#0d9488"/>
  </g>
  <line x1="820" y1="435" x2="640" y2="350" stroke="#14b8a6" stroke-width="2" stroke-dasharray="5,5" opacity="0.5"/>
  <g transform="translate(600, 100)">
    <rect x="-35" y="-35" width="70" height="70" fill="none" stroke="url(#accentGradient2)" stroke-width="2.5" rx="8" opacity="0.7"/>
    <circle cx="0" cy="0" r="8" fill="#0d9488"/>
  </g>
  <line x1="600" y1="135" x2="600" y2="260" stroke="#14b8a6" stroke-width="2" stroke-dasharray="5,5" opacity="0.5"/>
  <circle cx="450" cy="320" r="4" fill="#06b6d4" opacity="0.6">
    <animate attributeName="opacity" values="0.6;1;0.6" dur="3s" repeatCount="indefinite"/>
  </circle>
  <circle cx="750" cy="320" r="4" fill="#06b6d4" opacity="0.6">
    <animate attributeName="opacity" values="0.6;1;0.6" dur="3s" begin="1s" repeatCount="indefinite"/>
  </circle>
  <circle cx="600" cy="220" r="4" fill="#06b6d4" opacity="0.6">
    <animate attributeName="opacity" values="0.6;1;0.6" dur="3s" begin="2s" repeatCount="indefinite"/>
  </circle>
  <g transform="translate(520, 315)" opacity="0.4">
    <rect x="-3" y="-15" width="6" height="30" fill="#ffffff" rx="1"/>
    <rect x="-3" y="-15" width="6" height="8" fill="#14b8a6" rx="1"/>
  </g>
  <g transform="translate(680, 315)" opacity="0.4">
    <rect x="-3" y="-15" width="6" height="30" fill="#ffffff" rx="1"/>
    <rect x="-3" y="-15" width="6" height="8" fill="#14b8a6" rx="1"/>
  </g>
  <g transform="translate(520, 380)" opacity="0.3">
    <line x1="0" y1="0" x2="30" y2="0" stroke="#14b8a6" stroke-width="2"/>
    <line x1="0" y1="8" x2="25" y2="8" stroke="#14b8a6" stroke-width="2"/>
    <line x1="0" y1="16" x2="28" y2="16" stroke="#14b8a6" stroke-width="2"/>
  </g>
  <g transform="translate(650, 380)" opacity="0.3">
    <line x1="0" y1="0" x2="30" y2="0" stroke="#14b8a6" stroke-width="2"/>
    <line x1="0" y1="8" x2="25" y2="8" stroke="#14b8a6" stroke-width="2"/>
    <line x1="0" y1="16" x2="28" y2="16" stroke="#14b8a6" stroke-width="2"/>
  </g>
  <rect x="20" y="20" width="1160" height="590" fill="none" stroke="#14b8a6" stroke-width="1" rx="4" opacity="0.2"/>
</svg>
